<?xml version="1.0" encoding="UTF-8" standalone="no"?>
<!-- Created with Inkscape (http://www.inkscape.org/) -->

<svg
   xmlns:dc="http://purl.org/dc/elements/1.1/"
   xmlns:cc="http://creativecommons.org/ns#"
   xmlns:rdf="http://www.w3.org/1999/02/22-rdf-syntax-ns#"
   xmlns:svg="http://www.w3.org/2000/svg"
   xmlns="http://www.w3.org/2000/svg"
   xmlns:sodipodi="http://sodipodi.sourceforge.net/DTD/sodipodi-0.dtd"
   xmlns:inkscape="http://www.inkscape.org/namespaces/inkscape"
   width="512"
   height="512"
   viewBox="0 0 135.46666 135.46667"
   version="1.1"
   id="svg8"
   inkscape:version="0.92.1 r15371"
   sodipodi:docname="icon-512.svg"
   inkscape:export-filename="C:\Users\jonas\Documents\InvoiceCreator\www\images\icon-512.png"
   inkscape:export-xdpi="96"
   inkscape:export-ydpi="96">
  <defs
     id="defs2" />
  <sodipodi:namedview
     id="base"
     pagecolor="#ffffff"
     bordercolor="#666666"
     borderopacity="1.0"
     inkscape:pageopacity="0.0"
     inkscape:pageshadow="2"
     inkscape:zoom="0.98994949"
     inkscape:cx="237.05757"
     inkscape:cy="269.40633"
     inkscape:document-units="mm"
     inkscape:current-layer="layer1"
     showgrid="false"
     units="px"
     inkscape:window-width="1920"
     inkscape:window-height="1017"
     inkscape:window-x="-8"
     inkscape:window-y="-8"
     inkscape:window-maximized="1" />
  <metadata
     id="metadata5">
    <rdf:RDF>
      <cc:Work
         rdf:about="">
        <dc:format>image/svg+xml</dc:format>
        <dc:type
           rdf:resource="http://purl.org/dc/dcmitype/StillImage" />
        <dc:title></dc:title>
      </cc:Work>
    </rdf:RDF>
  </metadata>
  <g
     inkscape:label="Ebene 1"
     inkscape:groupmode="layer"
     id="layer1"
     transform="translate(0,-161.53332)">
    <text
       xml:space="preserve"
       style="font-style:normal;font-weight:normal;font-size:155.44911194px;line-height:1.25;font-family:sans-serif;letter-spacing:0px;word-spacing:0px;fill:#000000;fill-opacity:1;stroke:none;stroke-width:2.08190775"
       x="10.905538"
       y="286.11954"
       id="text4499"><tspan
         sodipodi:role="line"
         id="tspan4497"
         x="10.905538"
         y="286.11954"
         style="stroke-width:2.08190775">C</tspan></text>
    <text
       xml:space="preserve"
       style="font-style:normal;font-weight:normal;font-size:114.34426117px;line-height:1.25;font-family:sans-serif;letter-spacing:0px;word-spacing:0px;fill:#d40000;fill-opacity:1;stroke:none;stroke-width:1.53139639;"
       x="58.355568"
       y="270.94537"
       id="text4503"
       inkscape:export-xdpi="96"
       inkscape:export-ydpi="96"><tspan
         sodipodi:role="line"
         id="tspan4501"
         x="58.355568"
         y="270.94537"
         style="stroke-width:1.53139639;fill:#d40000;">I</tspan></text>
    <path
       style="opacity:1;fill:#000080;fill-opacity:1;fill-rule:evenodd;stroke:#da0000;stroke-width:0.20203051;stroke-miterlimit:4;stroke-dasharray:none;stroke-opacity:0;paint-order:markers fill stroke"
       d="M 261.37068,477.89429 C 168.09763,470.74579 103.20394,415.58105 82.034627,325.44451 69.817878,273.42699 73.140759,206.92906 90.262381,160.78964 105.70425,119.17683 133.24534,85.440527 169.80803,63.350662 189.64822,51.363931 215.93748,42.33623 243.60084,38.010304 c 14.43655,-2.257553 48.94016,-3.052812 64.83985,-1.494466 35.7409,3.503003 69.86194,14.602165 99.9033,32.497334 l 10.51832,6.265593 v 29.623455 c 0,16.2929 -0.17794,29.62346 -0.39543,29.62346 -0.21747,0 -4.19495,-3.21006 -8.83883,-7.13347 -26.62517,-22.49445 -57.93812,-37.10091 -92.28607,-43.048429 -15.25296,-2.641126 -49.55974,-2.398231 -65.15484,0.4613 -65.19048,11.953388 -103.56543,55.772229 -114.75821,131.037879 -2.13658,14.36739 -2.95168,50.60015 -1.5112,67.17514 4.2489,48.89009 17.54734,82.58953 42.9908,108.9426 9.10084,9.42619 21.61626,18.71541 32.86776,24.39514 36.17229,18.25971 94.29705,20.46957 137.06502,5.21111 21.55803,-7.69132 44.4305,-20.91666 62.19231,-35.96086 l 7.82869,-6.63087 -0.015,29.55065 -0.0151,29.55065 -11.34916,6.73988 c -13.91714,8.26489 -20.89124,11.74527 -34.00301,16.96898 -34.23826,13.64048 -72.52866,19.14239 -112.10936,16.10891 z"
       id="path4505"
       inkscape:connector-curvature="0"
       transform="matrix(0.26458333,0,0,0.26458333,0,161.53332)" />
  </g>
</svg>
